<svg height="574" width="720" xmlns="http://www.w3.org/2000/svg">
<rect height="574" fill="#555" width="720"></rect>
<text fill="#7f7" font-family="Courier New" font-size="12" xml:space="preserve">
<tspan x="10" y="26">9 megabytes installed</tspan>
<tspan x="10" y="42"></tspan>
<tspan x="10" y="58">node_modules</tspan>
<tspan x="10" y="74">├── UNMET PEER DEPENDENCY react@^0.14.0 || ^15.0.0-0</tspan>
<tspan x="10" y="90">└─┬ react-masonry-component@5.0.5 </tspan>
<tspan x="10" y="106">  ├─┬ create-react-class@15.5.2 </tspan>
<tspan x="10" y="122">  │ ├─┬ fbjs@0.8.12 </tspan>
<tspan x="10" y="138">  │ │ ├── core-js@1.2.7 </tspan>
<tspan x="10" y="154">  │ │ ├─┬ isomorphic-fetch@2.2.1 </tspan>
<tspan x="10" y="170">  │ │ │ ├─┬ node-fetch@1.6.3 </tspan>
<tspan x="10" y="186">  │ │ │ │ ├─┬ encoding@0.1.12 </tspan>
<tspan x="10" y="202">  │ │ │ │ │ └── iconv-lite@0.4.16 </tspan>
<tspan x="10" y="218">  │ │ │ │ └── is-stream@1.1.0 </tspan>
<tspan x="10" y="234">  │ │ │ └── whatwg-fetch@2.0.3 </tspan>
<tspan x="10" y="250">  │ │ ├─┬ loose-envify@1.3.1 </tspan>
<tspan x="10" y="266">  │ │ │ └── js-tokens@3.0.1 </tspan>
<tspan x="10" y="282">  │ │ ├─┬ promise@7.1.1 </tspan>
<tspan x="10" y="298">  │ │ │ └── asap@2.0.5 </tspan>
<tspan x="10" y="314">  │ │ ├── setimmediate@1.0.5 </tspan>
<tspan x="10" y="330">  │ │ └── ua-parser-js@0.7.12 </tspan>
<tspan x="10" y="346">  │ └── object-assign@4.1.1 </tspan>
<tspan x="10" y="362">  ├─┬ element-resize-detector@1.1.11 </tspan>
<tspan x="10" y="378">  │ └── batch-processor@1.0.0 </tspan>
<tspan x="10" y="394">  ├─┬ imagesloaded@4.1.1 </tspan>
<tspan x="10" y="410">  │ └── ev-emitter@1.0.3 </tspan>
<tspan x="10" y="426">  ├── lodash.assign@4.2.0 </tspan>
<tspan x="10" y="442">  ├── lodash.debounce@4.0.8 </tspan>
<tspan x="10" y="458">  ├── lodash.omit@4.5.0 </tspan>
<tspan x="10" y="474">  ├─┬ masonry-layout@4.2.0 </tspan>
<tspan x="10" y="490">  │ ├── get-size@2.0.2 </tspan>
<tspan x="10" y="506">  │ └─┬ outlayer@2.1.0 </tspan>
<tspan x="10" y="522">  │   └─┬ fizzy-ui-utils@2.0.5 </tspan>
<tspan x="10" y="538">  │     └── desandro-matches-selector@2.0.2 </tspan>
<tspan x="10" y="554">  └── prop-types@15.5.8</tspan>
</text>
</svg>
